<svg width="175" height="149" viewBox="0 0 175 149" fill="none" xmlns="http://www.w3.org/2000/svg">
<path d="M157.57 47.8855C155.685 47.7782 139.255 48.804 139.255 47.8855V26.1764C139.255 23.576 135.722 20.3912 133.054 19.926C122.184 18.0056 54.006 18.1845 42.5897 19.9141C39.2585 20.4151 35.8206 23.1824 35.8206 26.7847V47.8975C35.8206 48.8159 19.3778 47.7901 17.5048 47.8975C17.9197 25.7947 14.5055 3.44142 43.7752 0.888809C58.013 -0.351714 131.513 -0.804983 141.602 3.01201C161.008 10.3478 157.262 31.4248 157.57 47.8975V47.8855Z" fill="url(#paint0_linear_3_87)"/>
<path d="M17.5048 47.8855C17.2677 60.5055 17.244 73.3282 17.5048 85.9481C1.28726 84.8626 -1.04817 78.505 0.338854 62.4259C1.45321 49.4481 5.99365 48.5654 17.5048 47.8855Z" fill="url(#paint1_linear_3_87)"/>
<path d="M157.57 85.9481C157.831 73.3282 157.808 60.5054 157.57 47.8855C169.485 48.6012 173.74 49.794 174.736 63.0223C175.934 78.7912 173.527 84.8388 157.57 85.9481Z" fill="url(#paint2_linear_3_87)"/>
<path d="M17.5048 85.9481C19.4015 86.0793 35.8206 85.0296 35.8206 85.9481V105.868C35.8206 115.649 56.6496 110.854 62.8498 112.572C67.2124 113.776 84.9473 127.565 87.5317 127.565C90.4361 127.565 108.076 113.526 112.628 112.393C118.437 110.949 139.243 115.577 139.243 105.88V85.96C139.243 85.0416 155.662 86.0912 157.559 85.96C157.274 99.6177 158.637 130.559 136.575 130.559H113.529C113.47 130.559 112.64 131.382 112.64 131.454V149C108.124 147.497 90.6495 134.138 87.5198 134.185C83.8092 134.245 67.1175 147.986 61.8184 149V132.05C61.8184 131.979 62.7905 130.559 61.522 130.559H38.4761C16.5563 130.559 17.7774 99.6058 17.4929 85.96L17.5048 85.9481Z" fill="url(#paint3_linear_3_87)"/>
<path d="M64.0471 52.7999C83.1453 50.4262 83.987 78.672 66.7619 79.3638C49.8449 80.0437 48.2682 54.768 64.0471 52.7999Z" fill="url(#paint4_linear_3_87)"/>
<path d="M110.151 52.7999C129.095 50.5574 129.925 79.0298 112.297 79.328C96.2213 79.6023 93.9214 54.7203 110.151 52.7999Z" fill="url(#paint5_linear_3_87)"/>
<defs>
<linearGradient id="paint0_linear_3_87" x1="87.6366" y1="38.7913" x2="87.6366" y2="128.849" gradientUnits="userSpaceOnUse">
<stop stop-color="#31DCBC"/>
<stop offset="0.466346" stop-color="#00CBE7"/>
<stop offset="1" stop-color="#B3EA82"/>
</linearGradient>
<linearGradient id="paint1_linear_3_87" x1="87.6366" y1="38.7913" x2="87.6366" y2="128.849" gradientUnits="userSpaceOnUse">
<stop stop-color="#31DCBC"/>
<stop offset="0.466346" stop-color="#00CBE7"/>
<stop offset="1" stop-color="#B3EA82"/>
</linearGradient>
<linearGradient id="paint2_linear_3_87" x1="87.6366" y1="38.7913" x2="87.6366" y2="128.849" gradientUnits="userSpaceOnUse">
<stop stop-color="#31DCBC"/>
<stop offset="0.466346" stop-color="#00CBE7"/>
<stop offset="1" stop-color="#B3EA82"/>
</linearGradient>
<linearGradient id="paint3_linear_3_87" x1="87.6366" y1="38.7913" x2="87.6366" y2="128.849" gradientUnits="userSpaceOnUse">
<stop stop-color="#31DCBC"/>
<stop offset="0.466346" stop-color="#00CBE7"/>
<stop offset="1" stop-color="#B3EA82"/>
</linearGradient>
<linearGradient id="paint4_linear_3_87" x1="87.6366" y1="38.7913" x2="87.6366" y2="128.849" gradientUnits="userSpaceOnUse">
<stop stop-color="#31DCBC"/>
<stop offset="0.466346" stop-color="#00CBE7"/>
<stop offset="1" stop-color="#B3EA82"/>
</linearGradient>
<linearGradient id="paint5_linear_3_87" x1="87.6366" y1="38.7913" x2="87.6366" y2="128.849" gradientUnits="userSpaceOnUse">
<stop stop-color="#31DCBC"/>
<stop offset="0.466346" stop-color="#00CBE7"/>
<stop offset="1" stop-color="#B3EA82"/>
</linearGradient>
</defs>
</svg>
